# AST/ASF file generated using VICON BodyLanguage
# -----------------------------------------------
:version 1.10
:name VICON
:units
  mass 1.0
  length 0.45
  angle deg
:documentation
   .ast/.asf automatically generated from VICON data using
   VICON BodyBuilder and BodyLanguage model FoxedUp or BRILLIANT.MOD
:root
   order TX TY TZ RX RY RZ
   axis XYZ
   position 0 0 0  
   orientation 0 0 0 
:bonedata
  begin
     id 1 
     name lhipjoint
     direction 0.822369 -0.411937 0.392449 
     length 3.8167 
     axis 0 0 0  XYZ
  end
  begin
     id 2 
     name lfemur
     direction 0.34202 -0.939693 0  
     length 6.16791  
     axis 0 0 20  XYZ
    dof rx ry rz
    limits (-160.0 20.0)
           (-70.0 70.0)
           (-60.0 70.0)
  end
  begin
     id 3 
     name ltibia
     direction 0.34202 -0.939693 0   
     length 7.07101   
     axis 0 0 20   XYZ
    dof rx
    limits (-10.0 170.0)
  end
  begin
     id 4 
     name lfoot
     direction 0.028254 -0.0776273 0.996582   
     length 1.66799   
     axis -90 7.62852e-016 20   XYZ
    dof rx rz
    limits (-45.0 90.0)
           (-70.0 20.0)
  end
  begin
     id 5 
     name ltoes
     direction 1.53483e-011 -4.21688e-011 1   
     length 0.851674   
     axis -90 7.62852e-016 20   XYZ
    dof rx
    limits (-90.0 20.0)
  end
  begin
     id 6 
     name rhipjoint
     direction -0.822466 -0.411836 0.392353   
     length 3.81764  
     axis 0 0 0  XYZ 
  end
  begin
     id 7 
     name rfemur
     direction -0.34202 -0.939693 0   
     length 6.28636   
     axis 0 0 -20   XYZ
    dof rx ry rz
    limits (-160.0 20.0)
           (-70.0 70.0)
           (-70.0 60.0)
  end
  begin
     id 8 
     name rtibia
     direction -0.34202 -0.939693 0   
     length 6.85621   
     axis 0 0 -20   XYZ
    dof rx
    limits (-10.0 170.0)
 end
 begin
     id 9 
     name rfoot
     direction -0.0553036 -0.151945 0.98684   
     length 1.57293  
     axis -90 -7.62852e-016 -20   XYZ
    dof rx rz
    limits (-45.0 90.0)
           (-20.0 70.0)
  end
  begin
     id 10 
     name rtoes
     direction -1.53592e-011 -4.21964e-011 1   
     length 0.802812   
     axis -90 -7.62852e-016 -20   XYZ
    dof rx
    limits (-90.0 20.0)
  end
  begin
     id 11 
     name lowerback
     direction 0.00654913 0.996475 -0.0836396   
     length 1.97212   
     axis 0 0 0   XYZ
    dof rx ry rz
    limits (-20.0 45.0)
           (-30.0 30.0)
           (-30.0 30.0)
  end
  begin
     id 12 
     name upperback
     direction 0.0111875 0.994527 0.103877   
     length 1.89704   
     axis 0 0 0   XYZ
    dof rx ry rz
    limits (-20.0 45.0)
           (-30.0 30.0)
           (-30.0 30.0)
  end
  begin
     id 13 
     name thorax
     direction 0.00473652 0.989004 0.147814   
     length 1.94516   
     axis 0 0 0   XYZ
    dof rx ry rz
    limits (-20.0 45.0)
           (-30.0 30.0)
           (-30.0 30.0)
  end
  begin
     id 14 
     name lowerneck
     direction -0.00925808 0.999011 0.0434791   
     length 1.81771   
     axis 0 0 0   XYZ
    dof rx ry rz
    limits (-20.0 45.0)
           (-30.0 30.0)
           (-30.0 30.0)
  end
  begin
     id 15 
     name upperneck
     direction 0.00451595 0.964412 -0.264365   
     length 1.80434   
     axis 0 0 0   XYZ
    dof rx ry rz
    limits (-20.0 45.0)
           (-30.0 30.0)
           (-30.0 30.0)
  end
  begin
     id 16
     name head
     direction -0.00110849 0.995756 -0.0920241  
     length 1.84006  
     axis 0 0 0   XYZ
    dof rx ry rz
    limits (-20.0 45.0)
           (-30.0 30.0)
           (-30.0 30.0)
  end
  begin
     id 17 
     name lclavicle
     direction 0.921253 0.385213 0.0538957  
     length 3.67415  
     axis 0 0 0   XYZ
    dof ry rz
    limits (-20.0 10.0)
           (0.0 20.0)
  end
  begin
     id 18 
     name lhumerus
     direction 1 -4.48961e-011 6.73441e-028   
     length 4.32712   
     axis 180 -30 -90   XYZ
    dof rx ry rz
    limits (-60.0 90.0)
           (-90.0 90.0)
           (-90.0 90.0)
  end
  begin
     id 19
     name lradius
     direction 1 -4.48985e-011 -9.53507e-028   
     length 3.28587   
     axis 180 -30 -90   XYZ
    dof rx
    limits (-10.0 170.0)
  end
  begin
     id 20
     name lwrist
     direction 1 -4.48951e-011 -4.67472e-027   
     length 1.64293   
     axis 1.65735e-015 90 90   XYZ
    dof ry
    limits (-180.0 0.0)
 end
  begin
     id 21 
     name lhand
     direction 1 -4.48946e-011 -9.34945e-027   
     length 0.433158   
     axis 5.96574e-015 90 90   XYZ
    dof rx rz
    limits (-90.0 90.0)
           (-45.0 45.0)
  end
  begin
     id 22 
     name lfingers
     direction 1 -4.48882e-011 -1.86989e-026   
     length 0.349224   
     axis 1.19315e-014 90 90   XYZ
    dof rx
    limits (0.0 90.0)
  end
  begin
     id 23
     name lthumb
     direction 0.707107 -6.3493e-011 0.707107   
     length 0.501417   
     axis -90 45 2.85299e-015   XYZ
    dof rx rz
    limits (-45.0 45.0)
           (-45.0 45.0)
  end
  begin
     id 24 
     name rclavicle
     direction -0.884378 0.46502 -0.0403866   
     length 3.50218  
     axis 0 0 0   XYZ 
    dof ry rz
    limits (-10.0 20.0)
           (-20.0 0.0)
  end
  begin
     id 25 
     name rhumerus
     direction -1 -4.48964e-011 1.58188e-027  
     length 4.29104   
     axis 180 30 90   XYZ
    dof rx ry rz
    limits (-90.0 60.0)
           (-90.0 90.0)
           (-90.0 90.0)
  end
  begin
     id 26 
     name rradius
     direction -1 -4.48978e-011 -1.9722e-027   
     length 3.2272   
     axis 180 30 90   XYZ
    dof rx
    limits (-10.0 170.0)
  end
  begin
     id 27 
     name rwrist
     direction -1 -4.48969e-011 -4.67472e-027   
     length 1.6136   
     axis 1.65735e-015 -90 -90   XYZ
    dof ry
    limits (-180.0 0.0)
  end
  begin
     id 28
     name rhand
     direction -1 -4.48846e-011 -9.34945e-027   
     length 0.543623   
     axis 5.96574e-015 -90 -90   XYZ
    dof rx rz
    limits (-90.0 90.0)
           (-45.0 45.0)
  end
  begin
     id 29
     name rfingers
     direction -1 -4.49074e-011 -1.86989e-026   
     length 0.438283   
     axis 1.19315e-014 -90 -90   XYZ
    dof rx
    limits (0.0 90.0)
  end
  begin
     id 30
     name rthumb
     direction -0.707107 -6.34834e-011 0.707107   
     length 0.629289   
     axis -90 -45 -2.85299e-015   XYZ
    dof rx rz
    limits (-45.0 45.0)
           (-45.0 45.0)
  end
:hierarchy
  begin
    root lhipjoint rhipjoint lowerback
    lhipjoint lfemur
    lfemur ltibia
    ltibia lfoot
    lfoot ltoes
    rhipjoint rfemur
    rfemur rtibia
    rtibia rfoot
    rfoot rtoes
    lowerback upperback
    upperback thorax
    thorax lowerneck lclavicle rclavicle
    lowerneck upperneck
    upperneck head
    lclavicle lhumerus
    lhumerus lradius
    lradius lwrist
    lwrist lhand lthumb
    lhand lfingers
    rclavicle rhumerus
    rhumerus rradius
    rradius rwrist
    rwrist rhand rthumb
    rhand rfingers
  end

#!OML:ASF H:\GeneralSubjects\Female5\Project 1\Capture day 1\Session 1\Female5.ASF
:FULLY-SPECIFIED
:DEGREES
1
root -20.4059 15.7462 1.8596 23.1767 86.4169 15.9902
lowerback 22.9546 8.62905 15.4851
upperback -13.9479 17.5291 -14.5189
thorax -23.3783 1.55816 -41.6284
lowerneck -13.014 -10.3453 8.66634
upperneck 47.4896 -19.0085 7.78147
head 22.3664 -2.77 -0.674875
rclavicle -4.69132e-014 1.08139e-013
rhumerus -71.4552 -29.5453 -82.9472
rradius 47.058
rwrist -2.87309
rhand -19.242 -16.6921
rfingers 7.12502
rthumb 7.07155 -46.554
lclavicle -4.69132e-014 1.08139e-013
lhumerus -47.0143 -48.5181 70.3825
lradius 42.4298
lwrist -1.73551
lhand -29.3869 36.0365
lfingers 7.12502
lthumb -2.72539 65.9988
rfemur -25.8737 -4.74261 24.0207
rtibia 45.008
rfoot -20.5599 -20.527
rtoes -6.43928
lfemur -4.75015 -17.8878 -32.6826
ltibia 9.47826
lfoot -21.3337 14.3921
ltoes -65.0923
2
root -20.1601 15.7438 1.83972 28.2011 86.251 21.1685
lowerback 23.1737 8.54373 15.2861
upperback -13.7494 17.3129 -14.5682
thorax -23.4608 1.46278 -41.6095
lowerneck -13.0144 -10.3225 8.70263
upperneck 47.5307 -18.8962 7.52959
head 22.3118 -2.76952 -0.795976
rclavicle 1.00983e-013 -1.08139e-013
rhumerus -71.6659 -29.747 -82.5064
rradius 47.7281
rwrist -2.85313
rhand -19.0211 -16.9365
rfingers 7.12502
rthumb 7.28481 -46.7911
lclavicle 1.00983e-013 -1.08139e-013
lhumerus -46.8582 -49.4893 70.6856
lradius 44.167
lwrist -1.09685
lhand -29.4294 36.5041
lfingers 7.12502
lthumb -2.76644 66.4659
rfemur -27.5729 -3.83155 23.5451
rtibia 41.3886
rfoot -20.1635 -20.8348
rtoes -14.0629
lfemur -2.80688 -18.2575 -33.7409
ltibia 8.29771
lfoot -21.7932 14.8382
ltoes -64.7954
3
root -19.9154 15.7343 1.82656 32.8248 86.1707 25.8265
lowerback 23.3119 8.41839 15.131
upperback -13.5984 17.0688 -14.6223
thorax -23.5881 1.31693 -41.6681
lowerneck -13.2151 -10.1213 8.96556
upperneck 47.5174 -18.6864 7.50736
head 22.3258 -2.63856 -0.822299
rclavicle -2.14687e-014 1.59028e-014
rhumerus -72.0393 -30.022 -82.1336
rradius 48.4326
rwrist -2.54136
rhand -18.9773 -16.92
rfingers 7.12502
rthumb 7.32704 -46.7731
lclavicle -2.14687e-014 1.59028e-014
lhumerus -46.588 -50.4162 70.8429
lradius 45.6856
lwrist -0.547605
lhand -29.4372 36.6833
lfingers 7.12502
lthumb -2.77398 66.645
rfemur -28.8684 -2.324 22.8728
rtibia 36.8346
rfoot -20.1635 -20.8348
rtoes -14.0629
lfemur -1.24764 -18.5649 -34.6547
ltibia 7.5662
lfoot -21.5314 16.128
ltoes -66.1873
4
root -19.6669 15.7199 1.82033 36.5975 86.1133 29.5466
lowerback 23.3931 8.31478 14.9756
upperback -13.5118 16.8657 -14.6713
thorax -23.7489 1.17433 -41.7287
lowerneck -12.9789 -10.057 8.72163
upperneck 47.2728 -18.6505 8.0839
head 22.2386 -2.62248 -0.46365
rclavicle -3.18055e-015 -2.54444e-014
rhumerus -72.4418 -30.2384 -81.7547
rradius 49.0231
rwrist -2.14273
rhand -19.1261 -16.3119
rfingers 7.12502
rthumb 7.18347 -46.17
lclavicle -3.18055e-015 -2.54444e-014
lhumerus -45.9573 -50.9236 70.817
lradius 46.641
lwrist -0.578379
lhand -29.6166 36.7412
lfingers 7.12502
lthumb -2.94716 66.7006
rfemur -29.6409 0.0692307 21.8833
rtibia 31.3648
rfoot -17.4023 -22.609
rtoes -21.2424
lfemur 0.17988 -18.893 -35.4764
ltibia 6.92771
lfoot -20.8358 17.7461
ltoes -67.5929
5
root -19.4126 15.7045 1.82066 42.2347 86.0546 35.0574
lowerback 23.3185 8.26502 14.6607
upperback -13.4558 16.649 -14.7807
thorax -23.8442 1.10031 -41.6365
lowerneck -12.9086 -10.058 8.59374
upperneck 47.152 -18.689 8.33669
head 22.2053 -2.64107 -0.318111
rclavicle -5.64548e-014 -3.81667e-014
rhumerus -72.9142 -30.4293 -81.3014
rradius 49.6665
rwrist -1.70876
rhand -19.1064 -16.1083
rfingers 7.12502
rthumb 7.20247 -45.9657
lclavicle -5.64548e-014 -3.81667e-014
lhumerus -45.5173 -51.6639 70.9996
lradius 47.6326
lwrist -0.494063
lhand -30.2032 38.1417
lfingers 7.12502
lthumb -3.51373 68.0925
rfemur -30.0249 3.14603 20.2879
rtibia 25.1464
rfoot -17.7133 -23.6333
rtoes -20.1626
lfemur 1.55767 -19.2859 -36.3992
ltibia 6.27677
lfoot -20.2636 18.8339
ltoes -68.0994
6
root -19.1523 15.6862 1.83108 49.297 86.0266 41.9183
lowerback 23.0858 8.21491 14.2628
upperback -13.4323 16.3807 -14.9279
thorax -23.9034 1.04486 -41.4416
lowerneck -12.9151 -10.0243 8.76086
upperneck 47.1699 -18.6541 8.28054
head 22.18 -2.60156 -0.366052
rclavicle -6.99722e-014 1.145e-013
rhumerus -73.4646 -30.5726 -80.896
rradius 50.4172
rwrist -1.26396
rhand -18.8689 -16.7452
rfingers 7.12502
rthumb 7.4317 -46.5947
lclavicle -6.99722e-014 1.145e-013
lhumerus -45.3774 -52.6408 71.2583
lradius 48.7792
lwrist -0.203258
lhand -30.6323 39.0202
lfingers 7.12502
lthumb -3.92805 68.9637
rfemur -30.244 6.71417 18.0937
rtibia 18.5911
rfoot -18.5157 -25.1494
rtoes -20.4423
lfemur 2.87431 -19.6437 -37.2864
ltibia 5.60548
lfoot -20.0517 19.1973
ltoes -68.1294
7
root -18.8855 15.664 1.85236 55.9737 86.0759 48.3894
lowerback 22.8081 8.15261 13.9275
upperback -13.4306 16.1205 -15.0573
thorax -23.9362 0.994475 -41.2384
lowerneck -12.7739 -10.0497 8.99614
upperneck 47.1758 -18.6775 8.19887
head 22.0718 -2.58457 -0.440225
rclavicle 7.15625e-015 6.99722e-014
rhumerus -73.9828 -30.6533 -80.568
rradius 51.1934
rwrist -0.859873
rhand -18.8675 -17.0093
rfingers 7.12502
rthumb 7.43301 -46.8587
lclavicle 7.15625e-015 6.99722e-014
lhumerus -45.1053 -53.3624 71.3262
lradius 49.7495
lwrist -0.200323
lhand -30.4733 38.0789
lfingers 7.12502
lthumb -3.77452 68.0252
rfemur -30.4005 10.9258 15.442
rtibia 12.1794
rfoot -19.487 -26.0748
rtoes -15.8979
lfemur 4.12935 -19.8774 -37.9565
ltibia 5.04059
lfoot -20.0224 19.3101
ltoes -68.1566
8
root -18.61 15.6369 1.88199 63.2018 86.2301 55.4625
lowerback 22.5381 8.05876 13.6994
upperback -13.4354 15.8708 -15.163
thorax -23.9649 0.922319 -41.1133
lowerneck -13.0423 -10.0249 9.62869
upperneck 47.5404 -18.675 7.6349
head 22.2274 -2.47958 -0.833465
rclavicle 8.34896e-014 -3.81667e-014
rhumerus -74.6044 -30.8024 -80.2596
rradius 52.0492
rwrist -0.371216
rhand -18.8871 -16.6491
rfingers 7.12502
rthumb 7.4141 -46.4992
lclavicle 8.34896e-014 -3.81667e-014
lhumerus -44.6421 -53.8369 71.2572
lradius 50.3776
lwrist -0.592876
lhand -30.2506 37.5294
lfingers 7.12502
lthumb -3.55944 67.4795
rfemur -30.7636 16.3572 12.0268
rtibia 6.55056
rfoot -21.6779 -26.7633
rtoes -8.63763
lfemur 5.37816 -19.9456 -38.431
ltibia 4.66446
lfoot -20.1253 19.1761
ltoes -68.2235
9
root -18.3244 15.603 1.91688 73.1931 86.3966 65.3609
lowerback 22.2411 7.92524 13.5072
upperback -13.4259 15.5722 -15.253
thorax -23.972 0.837598 -40.9432
lowerneck -13.1043 -10.0427 8.90365
upperneck 47.8225 -18.7126 8.16265
head 22.8056 -2.47081 -0.420084
rclavicle 9.30312e-014 -6.36111e-015
rhumerus -75.3259 -30.8607 -79.9772
rradius 53.0202
rwrist -0.0696988
rhand -18.5649 -16.4237
rfingers 7.12502
rthumb 7.72511 -46.2626
lclavicle 9.30312e-014 -6.36111e-015
lhumerus -44.2342 -54.1483 71.3115
lradius 50.7269
lwrist -1.08199
lhand -30.3928 37.7016
lfingers 7.12502
lthumb -3.6968 67.6493
rfemur -32.0136 24.0339 6.81852
rtibia 2.30362
rfoot -30.0932 -26.051
rtoes 11.9825
lfemur 6.78999 -20.142 -38.9548
ltibia 4.31248
lfoot -20.2046 19.0361
ltoes -68.4824
10
root -18.0324 15.5617 1.95465 85.0137 86.481 77.0964
lowerback 21.9024 7.79111 13.3422
upperback -13.4109 15.2698 -15.329
thorax -23.9107 0.785756 -40.6907
lowerneck -13.1291 -10.0286 9.58098
upperneck 47.7372 -18.7274 7.75796
head 22.4919 -2.4314 -0.757404
rclavicle -6.04305e-014 -1.33583e-013
rhumerus -75.9078 -30.7359 -79.7755
rradius 54.0285
rwrist -0.17764
rhand -17.9996 -16.7244
rfingers 7.12502
rthumb 8.27069 -46.5425
lclavicle -6.04305e-014 -1.33583e-013
lhumerus -43.9758 -54.3498 71.4582
lradius 51.1567
lwrist -1.38581
lhand -30.599 37.9962
lfingers 7.12502
lthumb -3.89595 67.9404
rfemur -33.8935 29.4494 2.42249
rtibia 0.280808
rfoot -31.6573 -28.4805
rtoes 4.64643
lfemur 8.25888 -20.442 -39.4867
ltibia 3.91821
lfoot -20.3328 18.9736
ltoes -68.9483
11
root -17.7374 15.513 1.99193 97.0489 86.5452 89.0237
lowerback 21.5289 7.66349 13.3292
upperback -13.4251 15.0411 -15.3759
thorax -23.7778 0.760323 -40.5135
lowerneck -13.0152 -10.0387 8.39795
upperneck 47.7704 -18.6822 8.58579
head 22.9462 -2.48621 -0.0920356
rclavicle -6.36111e-015 8.26944e-014
rhumerus -76.3623 -30.6171 -79.6731
rradius 54.8605
rwrist 0.00209573
rhand -17.6882 -17.1271
rfingers 7.12502
rthumb 8.57125 -46.9331
lclavicle -6.36111e-015 8.26944e-014
lhumerus -43.8165 -54.4845 71.5133
lradius 51.6452
lwrist -1.65572
lhand -30.7211 38.5568
lfingers 7.12502
lthumb -4.01379 68.4987
rfemur -35.0181 30.7491 0.879722
rtibia -0.308033
rfoot -29.4776 -28.647
rtoes -1.6935
lfemur 9.54803 -20.6288 -39.8045
ltibia 3.74368
lfoot -21.1987 18.4787
ltoes -69.353
12
root -17.4365 15.4604 2.0306 110.033 86.5354 101.925
lowerback 21.1526 7.5275 13.4425
upperback -13.4519 14.854 -15.3904
thorax -23.6101 0.738529 -40.3972
lowerneck -13.1617 -9.97852 9.3806
upperneck 47.8195 -18.5398 7.63074
head 22.565 -2.39976 -0.752911
rclavicle 1.51871e-013 -1.59028e-014
rhumerus -76.7173 -30.4225 -79.6739
rradius 55.3297
rwrist 0.8855
rhand -17.8962 -16.8886
rfingers 7.12502
rthumb 8.37051 -46.7028
lclavicle 1.51871e-013 -1.59028e-014
lhumerus -43.8967 -54.5489 71.6575
lradius 52.0591
lwrist -1.96762
lhand -31.122 39.3836
lfingers 7.12502
lthumb -4.4009 69.3179
rfemur -34.763 28.2575 2.6164
rtibia 0.21057
rfoot -22.5619 -27.1914
rtoes -16.0998
lfemur 10.7423 -20.9155 -40.0053
ltibia 3.83054
lfoot -21.8584 17.5301
ltoes -68.8362
13
root -17.1265 15.4064 2.07568 121.855 86.3707 113.762
lowerback 20.8651 7.40299 13.5587
upperback -13.4517 14.6879 -15.3918
thorax -23.4573 0.718652 -40.2937
lowerneck -13.209 -10.0258 9.16323
upperneck 47.9734 -18.5368 7.54614
head 22.733 -2.42042 -0.756526
rclavicle 7.39479e-014 -8.90555e-014
rhumerus -76.8297 -30.0043 -79.8123
rradius 55.9416
rwrist 1.03531
rhand -17.4983 -17.7383
rfingers 7.12502
rthumb 8.75454 -47.5368
lclavicle 7.39479e-014 -8.90555e-014
lhumerus -44.0673 -54.5252 71.8214
lradius 52.3538
lwrist -2.11058
lhand -31.6437 39.8229
lfingers 7.12502
lthumb -4.9047 69.7461
rfemur -33.9336 24.1803 5.82416
rtibia 1.89646
rfoot -15.8483 -23.427
rtoes -24.6421
lfemur 11.9413 -21.1831 -40.1838
ltibia 4.14942
lfoot -20.9659 18.802
ltoes -69.8298
14
root -16.8097 15.3538 2.1245 130.945 86.0972 122.97
lowerback 20.6507 7.30349 13.6477
upperback -13.4135 14.5435 -15.3991
thorax -23.2844 0.722189 -40.1837
lowerneck -13.2752 -9.87468 9.07913
upperneck 47.8243 -18.3159 7.66776
head 22.6665 -2.35193 -0.644554
rclavicle 9.30312e-014 2.54444e-014
rhumerus -76.7003 -29.4468 -80.1529
rradius 56.3477
rwrist 1.45465
rhand -17.4096 -17.6624
rfingers 7.12502
rthumb 8.84006 -47.4572
lclavicle 9.30312e-014 2.54444e-014
lhumerus -44.1133 -54.3324 71.7823
lradius 52.4732
lwrist -2.19034
lhand -31.2941 39.1409
lfingers 7.12502
lthumb -4.56713 69.0716
rfemur -33.2091 21.0381 8.34814
rtibia 4.2842
rfoot -14.0606 -18.3996
rtoes -16.7973
lfemur 13.0786 -21.1057 -40.3157
ltibia 4.85179
lfoot -20.0829 19.8244
ltoes -70.7051
